<?xml version="1.0" encoding="iso-8859-1"?>
<!-- Generator: Adobe Illustrator 18.1.1, SVG Export Plug-In . SVG Version: 6.00 Build 0)  -->
<svg version="1.1" id="Capa_1" xmlns="http://www.w3.org/2000/svg" xmlns:xlink="http://www.w3.org/1999/xlink" x="0px" y="0px"
	 viewBox="0 0 32 32" style="enable-background:new 0 0 32 32;" xml:space="preserve">
<g>
	<g>
		<path style="fill:#010002;" d="M32,23.001c0-3.917-2.506-7.24-5.998-8.477V4h-2V1.999h2V0h-23
			C2.918,0.004,2.295-0.008,1.556,0.354C0.809,0.686-0.033,1.645,0.001,3c0,0.006,0.001,0.012,0.001,0.018V30c0,2,2,2,2,2h21.081
			l-0.007-0.004C28.014,31.955,32,27.945,32,23.001z M2.853,3.981c-0.177-0.026-0.435-0.112-0.58-0.238
			C2.136,3.609,2.017,3.5,2.002,3c0.033-0.646,0.193-0.686,0.447-0.856c0.129-0.065,0.288-0.107,0.403-0.125
			C2.97,1.997,3,2.005,3.002,1.999h19V4h-19C3,4,2.97,4.002,2.853,3.981z M4.002,30V6h20v8.06C23.673,14.023,23.339,14,23,14
			c-0.336,0-0.667,0.021-0.993,0.058C22.005,14.039,22,14.017,22,14c0-2-2-2-2-2h-2l-2-2h-4l-2,2H8c0,0-2,0-2,2v6c0,2,2,2,2,2
			s3.027,0,6.059,0C14.022,22.329,14,22.662,14,23.001c0,2.829,1.307,5.351,3.348,6.999H4.002z M16.932,16.368
			c-1.063,0.974-1.89,2.194-2.389,3.577C14.367,19.979,14.186,20,14,20c-1.658,0-3-1.342-3-3c0-1.656,1.342-3,3-3
			C15.438,14,16.641,15.016,16.932,16.368z M23,30c-3.865-0.008-6.994-3.135-7-6.999c0.006-3.865,3.135-6.995,7-7
			c3.865,0.006,6.992,3.135,7,7C29.992,26.865,26.865,29.992,23,30z"/>
		<polygon style="fill:#010002;" points="24.002,22 24.002,18 22,18 22,22 18,22 18,24 22,24 22,28 24.002,28 24.002,24 28,24 
			28,22 		"/>
	</g>
</g>
<g>
</g>
<g>
</g>
<g>
</g>
<g>
</g>
<g>
</g>
<g>
</g>
<g>
</g>
<g>
</g>
<g>
</g>
<g>
</g>
<g>
</g>
<g>
</g>
<g>
</g>
<g>
</g>
<g>
</g>
</svg>
